<?xml version="1.0" standalone="no"?>
<!DOCTYPE svg PUBLIC "-//W3C//DTD SVG 20010904//EN"
 "http://www.w3.org/TR/2001/REC-SVG-20010904/DTD/svg10.dtd">
<svg version="1.0" xmlns="http://www.w3.org/2000/svg"
 width="256.000000pt" height="256.000000pt" viewBox="0 0 256.000000 256.000000"
 preserveAspectRatio="xMidYMid meet">
<metadata>
Created by potrace 1.14, written by Peter Selinger 2001-2017
</metadata>
<g transform="translate(0.000000,256.000000) scale(0.100000,-0.100000)"
fill="#000000" stroke="none">
<path d="M369 2497 c-119 -41 -197 -110 -253 -227 l-31 -65 0 -855 0 -855 32
-67 c44 -94 109 -160 202 -206 l75 -37 886 0 886 0 75 37 c93 46 158 112 202
206 l32 67 0 855 0 855 -28 59 c-55 119 -146 199 -266 236 -61 19 -94 20 -905
20 l-841 -1 -66 -22z m791 -647 l0 -91 118 3 117 3 3 88 3 87 189 0 189 0 3
-87 3 -88 98 -5 c72 -4 100 -9 107 -20 14 -21 13 -826 0 -851 -10 -18 -29 -19
-705 -19 -617 0 -695 2 -709 16 -14 13 -16 67 -16 433 0 332 3 421 13 429 7 6
56 13 108 14 l94 3 3 88 3 87 189 0 190 0 0 -90z"/>
<path d="M1341 1563 c-31 -63 -241 -521 -241 -528 0 -3 25 -5 56 -3 l55 3 125
270 c68 148 124 275 124 282 0 9 -16 13 -50 13 -47 0 -50 -2 -69 -37z"/>
<path d="M875 1430 c-66 -55 -121 -109 -123 -119 -2 -13 32 -48 118 -120 67
-55 125 -101 130 -101 7 0 40 72 40 88 0 4 -34 34 -75 67 l-76 60 28 25 c16
14 51 43 77 66 l49 41 -19 46 c-10 26 -21 47 -24 47 -3 0 -59 -45 -125 -100z"/>
<path d="M1535 1483 l-18 -47 49 -40 c26 -23 61 -52 76 -66 l28 -25 -75 -60
c-41 -33 -75 -65 -75 -72 0 -17 32 -83 41 -83 18 0 249 202 249 218 0 11 -50
59 -124 120 -68 56 -126 102 -129 102 -2 0 -12 -21 -22 -47z"/>
</g>
</svg>
